<?xml version="1.0" encoding="UTF-8" standalone="no"?><!DOCTYPE svg PUBLIC "-//W3C//DTD SVG 1.1//EN" "http://www.w3.org/Graphics/SVG/1.1/DTD/svg11.dtd"><svg width="100%" height="100%" viewBox="0 0 8424 870" version="1.1" xmlns="http://www.w3.org/2000/svg" xmlns:xlink="http://www.w3.org/1999/xlink" xml:space="preserve" xmlns:serif="http://www.serif.com/" style="fill-rule:evenodd;clip-rule:evenodd;stroke-linecap:round;stroke-linejoin:round;stroke-miterlimit:1.5;"><rect id="Logo-wide" serif:id="Logo wide" x="0" y="0" width="8423.99" height="869.724" style="fill:none;"/><g><path d="M640.135,307.71c0,-161.408 -131.043,-292.451 -292.451,-292.451c-161.408,0 -292.45,131.043 -292.45,292.451l0,254.305c0,161.407 131.042,292.45 292.45,292.45c161.408,0 292.451,-131.043 292.451,-292.45l0,-254.305Z" style="fill:#633d0f;"/><path d="M436.691,301.352l-241.59,0c0,0 -38.045,71.381 -38.146,133.51c-0.103,64.211 38.146,139.868 38.146,139.868l241.59,0" style="fill:none;stroke:#0087cc;stroke-width:50.86px;"/><path d="M156.955,180.557l356.027,0c0,0 38.51,64.485 38.146,127.153c-0.374,64.285 -38.146,127.152 -38.146,127.152l-228.874,0" style="fill:none;stroke:#76b826;stroke-width:50.86px;"/><path d="M512.982,434.862c0,0 38.144,63.851 38.148,133.51c0.005,59.808 -38.148,120.795 -38.148,120.795l-349.669,0" style="fill:none;stroke:#75b726;stroke-width:50.86px;"/></g><g id="Open"><path d="M1338.42,402.182c0,98.444 -32.867,178.084 -98.601,238.921c-57.63,53.093 -129.217,79.64 -214.762,79.64c-86.445,0 -158.482,-26.823 -216.112,-80.47c-65.735,-60.836 -98.602,-140.2 -98.602,-238.091c0,-96.233 33.318,-175.32 99.952,-237.263c58.531,-54.199 130.118,-81.299 214.762,-81.299c85.094,0 156.456,27.1 214.086,81.299c66.185,61.943 99.277,141.03 99.277,237.263Zm-84.419,0c0,-70.239 -24.313,-127.204 -72.938,-170.896c-41.872,-37.608 -93.874,-56.412 -156.006,-56.412c-67.985,0 -123.364,21.431 -166.136,64.293c-42.773,42.863 -64.159,97.201 -64.159,163.015c0,68.026 20.936,122.917 62.808,164.673c41.872,41.756 97.701,62.634 167.487,62.634c69.336,0 124.827,-21.017 166.474,-63.049c41.647,-42.033 62.47,-96.785 62.47,-164.258Z" style="fill:#84511c;fill-rule:nonzero;"/><path d="M1801.04,193.125c44.123,0 79.241,14.656 105.354,43.968c26.114,29.313 39.171,68.58 39.171,117.802c0,51.434 -13.62,91.116 -40.859,119.046c-27.239,27.929 -66.297,41.894 -117.173,41.894l-241.101,0l0,187.487l-81.042,0l0,-510.197l335.65,0Zm-12.157,232.285c49.076,0 73.614,-22.952 73.614,-68.856c0,-48.669 -26.114,-73.004 -78.341,-73.004l-237.724,0l0,141.86l242.451,0Z" style="fill-rule:nonzero;"/><path d="M2477.06,703.322l-447.082,0l0,-510.197l431.549,0l0,90.425l-350.507,0l0,109.506l243.802,0l0,90.425l-243.802,0l0,129.416l366.04,0l0,90.425Z" style="fill-rule:nonzero;"/><path d="M3065.97,703.322l-120.888,0l-282.297,-425.579l0,425.579l-81.042,0l0,-510.197l120.888,0l282.296,425.579l0,-425.579l81.043,0l0,510.197Z" style="fill-rule:nonzero;"/></g><g id="Book"><path d="M3743.97,396.374c55.829,23.229 83.743,73.834 83.743,151.815c0,105.081 -61.682,157.622 -185.046,157.622l-389.678,0l0,-600.622l395.081,0c49.526,0 88.471,14.933 116.836,44.798c28.364,29.865 42.547,69.685 42.547,119.46c0,54.753 -21.161,97.062 -63.483,126.927Zm-94.549,-39.82c22.511,0 41.309,-7.881 56.391,-23.643c15.083,-15.762 22.625,-34.981 22.625,-57.656c0,-24.335 -6.754,-43.692 -20.261,-58.072c-13.507,-14.379 -31.966,-21.569 -55.379,-21.569l-318.765,0l0,160.94l315.389,0Zm-6.079,258.832c67.536,0 101.303,-27.1 101.303,-81.3c0,-58.071 -29.49,-87.107 -88.471,-87.107l-322.142,0l0,168.407l309.31,0Z" style="fill:#75b726;fill-rule:nonzero;"/><path d="M4477.4,449.468c0,83.512 -29.04,151.538 -87.12,204.079c-49.526,44.797 -111.433,67.196 -185.722,67.196c-74.288,0 -136.421,-22.399 -186.397,-67.196c-58.08,-51.988 -87.12,-120.014 -87.12,-204.079c0,-82.959 29.265,-150.432 87.796,-202.419c51.326,-45.904 113.234,-68.856 185.721,-68.856c72.038,0 133.72,22.952 185.047,68.856c58.53,52.54 87.795,120.013 87.795,202.419Zm-84.419,0c0,-52.541 -17.559,-95.817 -52.677,-129.83c-35.118,-34.014 -80.367,-51.02 -135.746,-51.02c-55.829,0 -101.415,17.145 -136.758,51.434c-35.344,34.29 -53.015,77.429 -53.015,129.416c0,54.2 17.334,98.03 52.002,131.49c34.668,33.46 80.592,50.19 137.771,50.19c56.73,0 102.316,-16.73 136.759,-50.19c34.443,-33.46 51.664,-77.29 51.664,-131.49Z" style="fill-rule:nonzero;"/><path d="M5115.61,449.468c0,83.512 -29.04,151.538 -87.12,204.079c-49.526,44.797 -111.433,67.196 -185.722,67.196c-74.288,0 -136.421,-22.399 -186.397,-67.196c-58.08,-51.988 -87.12,-120.014 -87.12,-204.079c0,-82.959 29.265,-150.432 87.796,-202.419c51.326,-45.904 113.234,-68.856 185.721,-68.856c72.038,0 133.72,22.952 185.047,68.856c58.53,52.54 87.795,120.013 87.795,202.419Zm-84.419,0c0,-52.541 -17.559,-95.817 -52.677,-129.83c-35.118,-34.014 -80.367,-51.02 -135.746,-51.02c-55.829,0 -101.415,17.145 -136.758,51.434c-35.344,34.29 -53.015,77.429 -53.015,129.416c0,54.2 17.334,98.03 52.002,131.49c34.668,33.46 80.592,50.19 137.771,50.19c56.73,0 102.316,-16.73 136.759,-50.19c34.443,-33.46 51.664,-77.29 51.664,-131.49Z" style="fill-rule:nonzero;"/><path d="M5734.23,705.811l-104.679,0l-197.878,-258.832l-118.187,104.528l0,154.304l-81.042,0l0,-510.197l81.042,0l0,249.706l282.972,-249.706l119.537,0l-221.515,195.783l239.75,314.414Z" style="fill-rule:nonzero;"/></g><g id="Case"><path d="M6462.39,239.582l-73.613,32.354c-49.526,-64.708 -118.862,-97.062 -208.008,-97.062c-67.535,0 -122.576,21.293 -165.124,63.879c-42.547,42.585 -63.82,96.785 -63.82,162.599c0,68.026 21.048,122.917 63.145,164.673c42.097,41.756 98.939,62.634 170.526,62.634c86.445,0 154.431,-32.907 203.956,-98.721l69.562,47.287c-35.119,50.328 -74.852,86.692 -119.2,109.09c-44.348,22.399 -97.363,33.599 -159.045,33.599c-86.445,0 -158.257,-26.547 -215.437,-79.641c-65.284,-60.836 -97.926,-140.477 -97.926,-238.921c0,-96.785 33.092,-175.873 99.277,-237.262c57.629,-53.647 128.992,-80.47 214.086,-80.47c122.464,0 216.337,51.987 281.621,155.962Z" style="fill:#0086cc;fill-rule:nonzero;"/><path d="M7078.31,703.322l-89.147,0l-47.95,-109.506l-278.92,0l-47.95,109.506l-89.146,0l226.243,-510.197l100.627,0l226.243,510.197Zm-177.618,-199.931l-98.601,-225.648l-99.277,225.648l197.878,0Z" style="fill-rule:nonzero;"/><path d="M7534.18,319.223c-54.028,-34.843 -112.784,-52.264 -176.267,-52.264c-92.298,0 -138.447,20.186 -138.447,60.56c0,23.781 17.334,39.267 52.002,46.457c47.275,4.977 94.549,10.231 141.824,15.762c67.985,8.296 116.385,23.228 145.2,44.797c31.967,23.782 47.95,60.007 47.95,108.676c0,54.753 -19.922,97.062 -59.768,126.927c-39.846,29.866 -97.588,44.798 -173.228,44.798c-106.705,0 -192.025,-29.865 -255.958,-89.595l43.898,-70.515c57.18,49.222 127.416,73.833 210.709,73.833c46.825,0 83.069,-7.328 108.732,-21.984c25.663,-14.656 38.495,-34.151 38.495,-58.486c0,-27.1 -15.758,-46.18 -47.275,-57.242c-17.559,-6.083 -44.798,-10.231 -81.717,-12.443c-57.63,-3.319 -92.973,-5.808 -106.03,-7.467c-51.327,-6.083 -89.147,-19.633 -113.459,-40.65c-24.313,-21.016 -36.469,-51.71 -36.469,-92.084c0,-48.669 19.472,-87.245 58.418,-115.727c38.945,-28.483 93.536,-42.724 163.772,-42.724c93.649,0 169.514,24.888 227.594,74.663l-49.976,64.708Z" style="fill-rule:nonzero;"/><path d="M8154.82,703.322l-447.083,0l0,-510.197l431.55,0l0,90.425l-350.508,0l0,109.506l243.802,0l0,90.425l-243.802,0l0,129.416l366.041,0l0,90.425Z" style="fill-rule:nonzero;"/></g></svg>