<?xml version="1.0" encoding="UTF-8" standalone="no"?>
<svg
   width="100%"
   height="100%"
   viewBox="0 0 8424 870"
   version="1.1"
   xml:space="preserve"
   style="fill-rule:evenodd;clip-rule:evenodd;stroke-linecap:round;stroke-linejoin:round;stroke-miterlimit:1.5;"
   id="svg40"
   sodipodi:docname="obc2_logo_dark.svg"
   inkscape:version="1.2.2 (b0a8486541, 2022-12-01)"
   xmlns:inkscape="http://www.inkscape.org/namespaces/inkscape"
   xmlns:sodipodi="http://sodipodi.sourceforge.net/DTD/sodipodi-0.dtd"
   xmlns="http://www.w3.org/2000/svg"
   xmlns:svg="http://www.w3.org/2000/svg"
   xmlns:serif="http://www.serif.com/"><defs
     id="defs44" /><sodipodi:namedview
     id="namedview42"
     pagecolor="#ffffff"
     bordercolor="#000000"
     borderopacity="0.25"
     inkscape:showpageshadow="2"
     inkscape:pageopacity="0.0"
     inkscape:pagecheckerboard="0"
     inkscape:deskcolor="#d1d1d1"
     showgrid="false"
     inkscape:zoom="0.15610161"
     inkscape:cx="4212"
     inkscape:cy="438.81673"
     inkscape:window-width="1920"
     inkscape:window-height="1008"
     inkscape:window-x="0"
     inkscape:window-y="60"
     inkscape:window-maximized="1"
     inkscape:current-layer="svg40" /><rect
     id="Logo-wide"
     serif:id="Logo wide"
     x="0"
     y="0"
     width="8423.99"
     height="869.724"
     style="fill:none;" /><g
     id="g11"><path
       d="M640.135,307.71c0,-161.408 -131.043,-292.451 -292.451,-292.451c-161.408,0 -292.45,131.043 -292.45,292.451l0,254.305c0,161.407 131.042,292.45 292.45,292.45c161.408,0 292.451,-131.043 292.451,-292.45l0,-254.305Z"
       style="fill:#633d0f;"
       id="path3" /><path
       d="M436.691,301.352l-241.59,0c0,0 -38.045,71.381 -38.146,133.51c-0.103,64.211 38.146,139.868 38.146,139.868l241.59,0"
       style="fill:none;stroke:#0087cc;stroke-width:50.86px;"
       id="path5" /><path
       d="M156.955,180.557l356.027,0c0,0 38.51,64.485 38.146,127.153c-0.374,64.285 -38.146,127.152 -38.146,127.152l-228.874,0"
       style="fill:none;stroke:#76b826;stroke-width:50.86px;"
       id="path7" /><path
       d="M512.982,434.862c0,0 38.144,63.851 38.148,133.51c0.005,59.808 -38.148,120.795 -38.148,120.795l-349.669,0"
       style="fill:none;stroke:#75b726;stroke-width:50.86px;"
       id="path9" /></g><path
     d="m 1338.42,402.182 c 0,98.444 -32.867,178.084 -98.601,238.921 -57.63,53.093 -129.217,79.64 -214.762,79.64 -86.445,0 -158.482,-26.823 -216.112,-80.47 -65.735,-60.836 -98.602,-140.2 -98.602,-238.091 0,-96.233 33.318,-175.32 99.952,-237.263 58.531,-54.199 130.118,-81.299 214.762,-81.299 85.094,0 156.456,27.1 214.086,81.299 66.185,61.943 99.277,141.03 99.277,237.263 z m -84.419,0 c 0,-70.239 -24.313,-127.204 -72.938,-170.896 -41.872,-37.608 -93.874,-56.412 -156.006,-56.412 -67.985,0 -123.364,21.431 -166.136,64.293 -42.773,42.863 -64.159,97.201 -64.159,163.015 0,68.026 20.936,122.917 62.808,164.673 41.872,41.756 97.701,62.634 167.487,62.634 69.336,0 124.827,-21.017 166.474,-63.049 41.647,-42.033 62.47,-96.785 62.47,-164.258 z"
     style="fill:#84511c;fill-rule:nonzero"
     id="path13" /><path
     d="m 1801.04,193.125 c 44.123,0 79.241,14.656 105.354,43.968 26.114,29.313 39.171,68.58 39.171,117.802 0,51.434 -13.62,91.116 -40.859,119.046 -27.239,27.929 -66.297,41.894 -117.173,41.894 H 1546.432 V 703.322 H 1465.39 V 193.125 Z m -12.157,232.285 c 49.076,0 73.614,-22.952 73.614,-68.856 0,-48.669 -26.114,-73.004 -78.341,-73.004 h -237.724 v 141.86 z"
     style="fill-rule:nonzero;fill:#808080"
     id="path15" /><path
     d="M 2477.06,703.322 H 2029.978 V 193.125 h 431.549 V 283.55 H 2111.02 v 109.506 h 243.802 v 90.425 H 2111.02 v 129.416 h 366.04 z"
     style="fill-rule:nonzero;fill:#808080"
     id="path17" /><path
     d="M 3065.97,703.322 H 2945.082 L 2662.785,277.743 v 425.579 h -81.042 V 193.125 h 120.888 l 282.296,425.579 V 193.125 h 81.043 z"
     style="fill-rule:nonzero;fill:#808080"
     id="path19" /><path
     d="m 3743.97,396.374 c 55.829,23.229 83.743,73.834 83.743,151.815 0,105.081 -61.682,157.622 -185.046,157.622 H 3252.989 V 105.189 h 395.081 c 49.526,0 88.471,14.933 116.836,44.798 28.364,29.865 42.547,69.685 42.547,119.46 0,54.753 -21.161,97.062 -63.483,126.927 z m -94.549,-39.82 c 22.511,0 41.309,-7.881 56.391,-23.643 15.083,-15.762 22.625,-34.981 22.625,-57.656 0,-24.335 -6.754,-43.692 -20.261,-58.072 -13.507,-14.379 -31.966,-21.569 -55.379,-21.569 h -318.765 v 160.94 z m -6.079,258.832 c 67.536,0 101.303,-27.1 101.303,-81.3 0,-58.071 -29.49,-87.107 -88.471,-87.107 h -322.142 v 168.407 z"
     style="fill:#75b726;fill-rule:nonzero"
     id="path22" /><path
     d="m 4477.4,449.468 c 0,83.512 -29.04,151.538 -87.12,204.079 -49.526,44.797 -111.433,67.196 -185.722,67.196 -74.288,0 -136.421,-22.399 -186.397,-67.196 -58.08,-51.988 -87.12,-120.014 -87.12,-204.079 0,-82.959 29.265,-150.432 87.796,-202.419 51.326,-45.904 113.234,-68.856 185.721,-68.856 72.038,0 133.72,22.952 185.047,68.856 58.53,52.54 87.795,120.013 87.795,202.419 z m -84.419,0 c 0,-52.541 -17.559,-95.817 -52.677,-129.83 -35.118,-34.014 -80.367,-51.02 -135.746,-51.02 -55.829,0 -101.415,17.145 -136.758,51.434 -35.344,34.29 -53.015,77.429 -53.015,129.416 0,54.2 17.334,98.03 52.002,131.49 34.668,33.46 80.592,50.19 137.771,50.19 56.73,0 102.316,-16.73 136.759,-50.19 34.443,-33.46 51.664,-77.29 51.664,-131.49 z"
     style="fill-rule:nonzero;fill:#808080"
     id="path24" /><path
     d="m 5115.61,449.468 c 0,83.512 -29.04,151.538 -87.12,204.079 -49.526,44.797 -111.433,67.196 -185.722,67.196 -74.288,0 -136.421,-22.399 -186.397,-67.196 -58.08,-51.988 -87.12,-120.014 -87.12,-204.079 0,-82.959 29.265,-150.432 87.796,-202.419 51.326,-45.904 113.234,-68.856 185.721,-68.856 72.038,0 133.72,22.952 185.047,68.856 58.53,52.54 87.795,120.013 87.795,202.419 z m -84.419,0 c 0,-52.541 -17.559,-95.817 -52.677,-129.83 -35.118,-34.014 -80.367,-51.02 -135.746,-51.02 -55.829,0 -101.415,17.145 -136.758,51.434 -35.344,34.29 -53.015,77.429 -53.015,129.416 0,54.2 17.334,98.03 52.002,131.49 34.668,33.46 80.592,50.19 137.771,50.19 56.73,0 102.316,-16.73 136.759,-50.19 34.443,-33.46 51.664,-77.29 51.664,-131.49 z"
     style="fill-rule:nonzero;fill:#808080"
     id="path26" /><path
     d="M 5734.23,705.811 H 5629.551 L 5431.673,446.979 5313.486,551.507 v 154.304 h -81.042 V 195.614 h 81.042 V 445.32 l 282.972,-249.706 h 119.537 L 5494.48,391.397 Z"
     style="fill-rule:nonzero;fill:#808080"
     id="path28" /><path
     d="m 6462.39,239.582 -73.613,32.354 c -49.526,-64.708 -118.862,-97.062 -208.008,-97.062 -67.535,0 -122.576,21.293 -165.124,63.879 -42.547,42.585 -63.82,96.785 -63.82,162.599 0,68.026 21.048,122.917 63.145,164.673 42.097,41.756 98.939,62.634 170.526,62.634 86.445,0 154.431,-32.907 203.956,-98.721 l 69.562,47.287 c -35.119,50.328 -74.852,86.692 -119.2,109.09 -44.348,22.399 -97.363,33.599 -159.045,33.599 -86.445,0 -158.257,-26.547 -215.437,-79.641 -65.284,-60.836 -97.926,-140.477 -97.926,-238.921 0,-96.785 33.092,-175.873 99.277,-237.262 57.629,-53.647 128.992,-80.47 214.086,-80.47 122.464,0 216.337,51.987 281.621,155.962 z"
     style="fill:#0086cc;fill-rule:nonzero"
     id="path31" /><path
     d="m 7078.31,703.322 h -89.147 l -47.95,-109.506 h -278.92 l -47.95,109.506 h -89.146 L 6751.44,193.125 h 100.627 z m -177.618,-199.931 -98.601,-225.648 -99.277,225.648 z"
     style="fill-rule:nonzero;fill:#808080"
     id="path33" /><path
     d="m 7534.18,319.223 c -54.028,-34.843 -112.784,-52.264 -176.267,-52.264 -92.298,0 -138.447,20.186 -138.447,60.56 0,23.781 17.334,39.267 52.002,46.457 47.275,4.977 94.549,10.231 141.824,15.762 67.985,8.296 116.385,23.228 145.2,44.797 31.967,23.782 47.95,60.007 47.95,108.676 0,54.753 -19.922,97.062 -59.768,126.927 -39.846,29.866 -97.588,44.798 -173.228,44.798 -106.705,0 -192.025,-29.865 -255.958,-89.595 l 43.898,-70.515 c 57.18,49.222 127.416,73.833 210.709,73.833 46.825,0 83.069,-7.328 108.732,-21.984 25.663,-14.656 38.495,-34.151 38.495,-58.486 0,-27.1 -15.758,-46.18 -47.275,-57.242 -17.559,-6.083 -44.798,-10.231 -81.717,-12.443 -57.63,-3.319 -92.973,-5.808 -106.03,-7.467 -51.327,-6.083 -89.147,-19.633 -113.459,-40.65 -24.313,-21.016 -36.469,-51.71 -36.469,-92.084 0,-48.669 19.472,-87.245 58.418,-115.727 38.945,-28.483 93.536,-42.724 163.772,-42.724 93.649,0 169.514,24.888 227.594,74.663 z"
     style="fill-rule:nonzero;fill:#808080"
     id="path35" /><path
     d="M 8154.82,703.322 H 7707.737 V 193.125 h 431.55 v 90.425 h -350.508 v 109.506 h 243.802 v 90.425 h -243.802 v 129.416 h 366.041 z"
     style="fill-rule:nonzero;fill:#808080"
     id="path37" /></svg>
